<svg width="50" height="50" viewBox="0 0 50 50" fill="none" xmlns="http://www.w3.org/2000/svg">
<mask id="mask0_740_557" style="mask-type:alpha" maskUnits="userSpaceOnUse" x="0" y="0" width="50" height="50">
<rect width="50" height="50" fill="#D9D9D9"/>
</mask>
<g mask="url(#mask0_740_557)">
<path d="M12.0834 35.7671C13.8646 34.405 15.8553 33.3311 18.0556 32.5453C20.2559 31.7594 22.561 31.3665 24.9708 31.3665C27.3807 31.3665 29.6858 31.7594 31.8861 32.5453C34.0864 33.3311 36.0771 34.405 37.8583 35.7671C39.0807 34.3352 40.0324 32.7112 40.7134 30.895C41.3945 29.0789 41.735 27.1406 41.735 25.08C41.735 20.4349 40.1022 16.4796 36.8367 13.2141C33.5712 9.94856 29.6159 8.3158 24.9708 8.3158C20.3258 8.3158 16.3705 9.94856 13.1049 13.2141C9.83943 16.4796 8.20667 20.4349 8.20667 25.08C8.20667 27.1406 8.54719 29.0789 9.22823 30.895C9.90928 32.7112 10.861 34.3352 12.0834 35.7671ZM24.9708 27.1755C22.9102 27.1755 21.1727 26.4683 19.7582 25.0538C18.3438 23.6393 17.6365 21.9018 17.6365 19.8412C17.6365 17.7806 18.3438 16.043 19.7582 14.6286C21.1727 13.2141 22.9102 12.5068 24.9708 12.5068C27.0314 12.5068 28.769 13.2141 30.1834 14.6286C31.5979 16.043 32.3052 17.7806 32.3052 19.8412C32.3052 21.9018 31.5979 23.6393 30.1834 25.0538C28.769 26.4683 27.0314 27.1755 24.9708 27.1755ZM24.9708 46.0352C22.072 46.0352 19.3479 45.4851 16.7983 44.385C14.2488 43.2848 12.031 41.7918 10.145 39.9058C8.25906 38.0198 6.766 35.8021 5.66585 33.2525C4.5657 30.703 4.01562 27.9788 4.01562 25.08C4.01562 22.1812 4.5657 19.457 5.66585 16.9074C6.766 14.3579 8.25906 12.1401 10.145 10.2542C12.031 8.36819 14.2488 6.87513 16.7983 5.77498C19.3479 4.67483 22.072 4.12476 24.9708 4.12476C27.8696 4.12476 30.5938 4.67483 33.1434 5.77498C35.6929 6.87513 37.9107 8.36819 39.7966 10.2542C41.6826 12.1401 43.1757 14.3579 44.2758 16.9074C45.376 19.457 45.926 22.1812 45.926 25.08C45.926 27.9788 45.376 30.703 44.2758 33.2525C43.1757 35.8021 41.6826 38.0198 39.7966 39.9058C37.9107 41.7918 35.6929 43.2848 33.1434 44.385C30.5938 45.4851 27.8696 46.0352 24.9708 46.0352ZM24.9708 41.8441C26.8219 41.8441 28.5681 41.5735 30.2096 41.0321C31.8511 40.4908 33.3529 39.7137 34.715 38.7009C33.3529 37.688 31.8511 36.9109 30.2096 36.3696C28.5681 35.8282 26.8219 35.5576 24.9708 35.5576C23.1198 35.5576 21.3735 35.8282 19.732 36.3696C18.0905 36.9109 16.5888 37.688 15.2267 38.7009C16.5888 39.7137 18.0905 40.4908 19.732 41.0321C21.3735 41.5735 23.1198 41.8441 24.9708 41.8441ZM24.9708 22.9844C25.8789 22.9844 26.6298 22.6876 27.2235 22.0938C27.8173 21.5001 28.1141 20.7492 28.1141 19.8412C28.1141 18.9331 27.8173 18.1822 27.2235 17.5885C26.6298 16.9947 25.8789 16.6979 24.9708 16.6979C24.0628 16.6979 23.3119 16.9947 22.7182 17.5885C22.1244 18.1822 21.8276 18.9331 21.8276 19.8412C21.8276 20.7492 22.1244 21.5001 22.7182 22.0938C23.3119 22.6876 24.0628 22.9844 24.9708 22.9844Z" fill="#1C1B1F"/>
</g>
</svg>
