<svg width="176" height="450" viewBox="0 0 176 450" fill="none" xmlns="http://www.w3.org/2000/svg">
<path d="M-6.56244 103.728C-7.92064 99.658 -9.39732 95.624 -11.029 91.6537C-19.2784 71.5017 -30.6818 52.8249 -45.7678 37.0257C-51.6746 30.8426 -59.9787 20.753 -68.7842 19.214C-75.2834 18.0758 -84.7999 19.4599 -88.9201 25.1057C-95.9754 34.7765 -82.7399 43.6732 -76.9242 49.8472C-68.7659 58.5163 -60.872 67.4859 -53.6708 76.9654C-46.9892 85.762 -40.9093 94.941 -35.5312 104.502C-130.432 111.624 -191.66 164.621 -191.66 264.48C-191.66 372.106 -113.887 449.991 -6.15224 449.991C101.583 449.991 175.992 372.106 175.992 264.48C175.992 156.854 98.0368 105.75 -6.57155 103.728H-6.56244Z" fill="#EF9E81"/>
<path d="M137.652 245.639C137.552 283.375 128.017 320.956 106.815 352.482C87.0163 381.922 57.5645 404.078 24.0198 415.551C-46.8981 439.801 -131.799 421.042 -179.874 362.089C-203.291 333.386 -216.107 296.989 -218.568 260.245C-220.948 224.731 -215.478 187.387 -196.145 156.89C-157.258 95.5511 -74.7821 84.0591 -8.28526 92.5643C26.1436 96.9626 61.0921 108.518 88.0463 131.001C115.001 153.485 130.451 183.854 135.674 217.711C137.096 226.944 137.625 236.305 137.652 245.639C137.671 252.669 148.609 252.687 148.591 245.639C148.481 207.748 138.072 170.34 113.478 140.918C90.4163 113.326 57.2272 96.0793 22.7345 87.3647C-16.5711 77.4298 -59.3315 76.5192 -99.1111 84.2412C-133.367 90.8887 -166.775 105.905 -190.657 131.894C-215.332 158.748 -227.009 194.044 -229.47 229.958C-232.232 270.244 -224.266 311.55 -203.783 346.608C-184.641 379.354 -155.08 405.398 -120.213 420.359C-82.5758 436.505 -40.0433 440.448 0.155609 433.053C37.6746 426.151 72.9239 407.838 98.9666 379.828C125.429 351.371 141.289 314.682 146.485 276.372C147.871 266.174 148.563 255.92 148.591 245.63C148.609 238.6 137.671 238.591 137.652 245.63V245.639Z" fill="#231F20"/>
<path d="M-111.709 144.897C-95.7384 152.874 -79.7865 160.915 -63.7889 168.838C-49.5416 175.895 -33.9907 176.296 -19.5792 169.366C-11.5577 165.505 -3.59082 161.525 4.40338 157.601L30.3002 144.897C36.6172 141.801 31.0842 132.367 24.7763 135.463C8.83347 143.286 -7.10025 151.099 -23.0431 158.921C-34.255 164.421 -46.3967 165.25 -57.8092 159.631C-65.9311 155.634 -73.9982 151.545 -82.1018 147.502C-90.2054 143.459 -98.1631 139.479 -106.194 135.463C-112.474 132.331 -118.016 141.747 -111.718 144.897H-111.709Z" fill="#231F20"/>
<path d="M-32.4684 122.087C-39.2138 99.9312 -49.3046 78.987 -62.3305 59.8367C-68.6657 50.5211 -75.5843 41.597 -82.8675 33.0099C-86.7233 28.4568 -90.7067 24.0039 -94.7722 19.642C-96.5315 17.7479 -98.3181 15.8721 -100.114 14.0053C-101.317 12.7577 -102.529 11.5102 -103.742 10.2718C-105.929 7.32136 -106.367 7.87683 -105.054 11.9382C-105.966 14.1419 -106.887 16.3547 -107.798 18.5584C-109.484 20.6255 -109.548 19.6147 -106.659 18.868C-105.765 18.8042 -104.881 18.786 -103.988 18.8316C-106.887 17.7206 -106.996 18.0393 -104.334 19.7877C-100.542 23.9219 -95.8022 27.3367 -91.9008 31.4254C-83.9613 39.7485 -77.1703 48.973 -71.4003 58.9079C-65.6758 68.7698 -61.0543 79.1509 -57.4628 89.9599C-55.7127 95.2142 -54.1904 100.55 -52.8778 105.932C-51.547 111.405 -49.1861 118.125 -49.6145 123.771C-48.0649 121.076 -46.5152 118.38 -44.9747 115.685C-45.3941 115.949 -45.8134 116.213 -46.2327 116.486C-56.3963 122.924 -46.9984 139.133 -36.7709 132.659C-26.7348 126.312 -32.0491 112.771 -34.2459 103.273C-36.6615 92.883 -39.8519 82.675 -43.89 72.8039C-52.1395 52.6519 -63.5428 33.9751 -78.6288 18.1759C-84.5356 11.9928 -92.8397 1.90318 -101.645 0.364238C-108.144 -0.774034 -117.661 0.610105 -121.781 6.25594C-128.836 15.9267 -115.601 24.8234 -109.785 30.9974C-101.627 39.6665 -93.733 48.6361 -86.5319 58.1156C-70.6802 78.9779 -58.183 101.971 -50.5443 127.058C-47.0439 138.56 -28.9408 133.66 -32.4593 122.077L-32.4684 122.087Z" fill="#231F20"/>
</svg>
