<svg width="389" height="431" viewBox="0 0 389 431" fill="none" xmlns="http://www.w3.org/2000/svg">
<path d="M291.025 115.855C284.901 111.877 277.165 111.319 270.517 114.327C269.881 114.615 269.231 114.823 268.579 114.98C266.612 115.535 264.474 115.513 262.474 114.759C260.473 114.005 258.823 112.592 257.711 110.861C257.328 110.322 256.988 109.747 256.705 109.12C253.697 102.472 247.511 97.7817 240.291 96.7296C176.844 87.4937 111.401 127.355 85.8513 195.13C60.3011 262.904 84.7112 340.938 142.363 374.367C146.054 376.505 150.542 376.761 154.429 374.997C161.042 372.005 168.827 374.94 171.819 381.553C173.577 385.438 177.114 388.215 181.298 389.045C246.671 401.994 315.669 361.752 342.07 291.721C368.471 221.689 344.779 150.803 291.025 115.855Z" fill="#F0C880"/>
<path d="M251.647 211.628C246.069 247.327 223.178 287.456 184.391 293.851C177.254 295.027 169.766 294.804 162.985 292.101C156.205 289.399 150.138 283.948 145.515 278.046C134.414 263.842 129.318 245.151 129.601 227.287C129.914 207.244 136.652 188.437 147.284 171.618C156.905 156.394 167.224 141.222 179.797 128.247C188.872 118.882 199.891 109.466 212.932 106.481C223.45 104.067 235.229 106.392 243.196 113.972C251.88 122.233 254.768 134.892 255.989 146.359C257.783 163.22 256.081 180.44 253.823 197.172C253.174 202.002 252.432 206.826 251.651 211.636C250.799 216.851 258.991 217.596 259.841 212.388C262.991 193.077 265.509 173.441 264.72 153.833C264.158 139.86 261.859 124.999 253.505 113.376C246.004 102.947 233.262 97.0597 220.494 97.3213C205.918 97.6189 192.894 105.298 182.178 114.667C168.176 126.905 156.855 142.132 146.611 157.552C140.4 166.899 134.344 176.377 129.986 186.751C125.912 196.449 123.172 206.789 122.011 217.249C119.841 236.877 123.365 257.678 133.465 274.792C142.227 289.644 155.759 301.732 173.661 302.673C192.62 303.669 211.113 294.632 224.853 282.082C240.114 268.136 250.56 249.343 256.137 229.556C257.729 223.917 258.94 218.178 259.848 212.39C260.668 207.163 252.476 206.418 251.658 211.639L251.647 211.628Z" fill="#231F20"/>
<path d="M246.698 78.8077C242.558 80.447 239.74 78.169 237.853 74.6673C235.726 70.7312 232.852 67.2607 229.065 64.8151C222.357 60.4844 214.063 60.0455 206.292 59.679C191.616 58.9796 176.828 60.7134 162.707 64.7565C133.766 73.0476 108.057 90.2099 88.5578 113.067C48.1008 160.473 36.8914 230.886 64.328 287.409C70.6217 300.379 78.8506 312.488 88.8125 322.915C93.8122 328.147 99.212 333.017 104.985 337.383C110.758 341.748 117.634 347.46 124.792 348.365C129.085 348.906 132.198 346.982 136.221 346.295C139.93 345.664 143.547 347.416 145.521 350.592C147.764 354.198 149.443 357.262 153.322 359.406C156.891 361.381 161.097 361.861 165.089 362.443C179.353 364.525 194.028 364.162 208.201 361.552C269.716 350.213 316.943 298.857 330.51 238.897C343.609 180.994 323.255 113.395 271.332 80.7565C263.783 76.0137 254.904 75.3397 246.707 78.8037C241.822 80.8651 245.222 88.3572 250.099 86.2997C258.391 82.7982 265.042 86.1551 271.767 91.0264C277.353 95.0728 282.63 99.5669 287.448 104.503C297.146 114.427 305.219 125.863 311.379 138.292C324.09 163.962 328.609 193.157 325.206 221.534C318.239 279.683 277.695 333.09 220.79 350.092C207.682 354.011 193.91 355.945 180.23 355.518C173.504 355.312 166.131 354.978 159.606 353.17C155.355 351.992 154.228 348.806 151.969 345.472C149.922 342.452 146.85 340.071 143.383 338.896C139.915 337.72 136.379 337.64 132.946 338.645C128.838 339.85 125.918 341.027 121.873 338.799C115.841 335.47 110.173 331.217 104.9 326.805C94.4529 318.055 85.4593 307.488 78.3099 295.895C47.0951 245.256 52.1698 178.411 85.7002 130.225C102.015 106.782 124.783 87.9984 151.326 77.2874C164.188 72.096 177.821 68.9383 191.664 67.9833C198.55 67.511 205.484 67.6714 212.346 68.3692C215.93 68.7315 219.617 69.0155 222.879 70.6774C226.968 72.7683 229.126 76.0572 231.292 79.9275C235.109 86.7418 242.968 89.1112 250.088 86.2885C255.022 84.333 251.61 76.8513 246.697 78.7924L246.698 78.8077Z" fill="#231F20"/>
<path d="M228.844 63.1066C229.533 64.5234 229.67 67.248 228.907 62.8227C229.325 65.2503 229.929 67.5725 230.223 70.0345C230.608 73.2697 230.295 67.9012 230.271 70.162C230.264 70.8991 230.274 71.6281 230.252 72.3668C230.186 74.5827 229.968 76.7927 229.627 78.9785C229.485 79.8989 229.296 80.8089 229.135 81.7221C228.843 83.0987 228.865 82.9824 229.217 81.387C229.046 82.0548 228.868 82.7202 228.676 83.3871C227.836 86.3146 226.778 89.1599 225.602 91.9681C223.107 97.926 226.612 105.838 232.793 107.861C239.339 109.999 246.016 107.053 248.686 100.67C253.23 89.8021 255.494 78.2794 254.603 66.5194C254.262 62.0042 253.308 57.0164 251.326 52.9298C248.506 47.1214 241.061 43.7142 235.001 46.7753C228.94 49.8365 225.838 56.8984 228.846 63.1002L228.844 63.1066Z" fill="#231F20"/>
</svg>
