<svg width="273" height="293" viewBox="0 0 273 293" fill="none" xmlns="http://www.w3.org/2000/svg">
<path d="M47.0444 184.123L57.6221 173.556C59.5291 171.646 62.4076 171.066 64.8977 172.102C107.535 189.794 150.614 200.914 196.79 176.522C217.548 165.555 233.398 148.191 244.278 127.551C249.411 117.818 253.644 107.65 257.666 97.4238C261.517 87.6364 266.065 77.7778 268.103 67.4102C270.137 57.0313 269.893 45.6986 266.517 35.6151C264.986 31.0412 259.892 14.2426 259.892 14.2426C259.892 14.2426 283.708 9.07138 283.716 9.99861C283.818 27.0843 288.215 43.8176 294.982 59.4185C301.753 75.0307 310.377 89.9957 311.92 107.308C313.303 122.799 311.535 138.436 306.979 153.293C297.595 183.891 277.422 210.59 251.371 229.017C245.859 232.914 240.09 236.453 234.118 239.603C163.348 276.985 79.4713 257.099 46.7655 195.193C46.3808 194.465 46.0091 193.74 45.6431 193.013C44.1612 190.047 44.6986 186.469 47.0444 184.123Z" fill="#F2E282"/>
<path d="M57.7946 169.863C60.8609 165.815 63.7054 161.378 67.1149 157.611C71.8753 152.352 77.9937 154.672 83.8923 156.119C89.791 157.566 95.8575 158.916 101.896 160.04C125.593 164.445 150.203 165.344 173.38 157.834C196.556 150.323 218.377 134.539 232.048 113.532C238.9 103.002 243.827 91.4989 247.554 79.5319C251.667 66.3338 255.129 52.7028 257.991 39.1745C261.073 24.5973 260.64 9.76062 254.095 -3.84049C250.855 -10.5704 247.733 -17.3565 244.605 -24.1408C243.777 -25.9371 245.302 -27.9988 246.919 -28.59C250.542 -29.9137 254.179 -31.2111 257.822 -32.4728C260.487 -33.395 263.154 -34.3115 265.853 -35.1452C267.48 -35.6465 269.433 -36.4304 271.157 -36.2498C272.497 -36.1089 273.597 -35.4334 274.186 -34.1754C275.355 -31.669 275.329 -28.1032 275.951 -25.3681C277.21 -19.8471 278.904 -14.4259 280.956 -9.14283C285.055 1.42505 290.739 11.121 296.842 20.6347C302.945 30.1485 308.761 39.1268 312.746 49.39C316.73 59.6533 318.195 70.1233 318.689 80.6582C319.607 100.288 315.682 119.909 308.266 138.055C293.714 173.663 265.218 202.481 230.747 219.173C200.783 233.686 166.445 239.273 133.634 232.621C118.33 229.514 103.453 223.7 90.334 215.206C83.814 210.987 77.6808 206.186 72.1145 200.767C66.5483 195.348 60.6382 189.213 56.8612 182.473C54.7746 178.75 54.8982 174.155 57.2929 170.61C59.8236 166.867 66.1442 170.102 63.5887 173.884C61.0331 177.666 63.8329 180.271 66.0697 183.253C68.3064 186.234 70.5829 188.948 73.0602 191.612C78.0757 196.995 83.6224 201.881 89.5916 206.181C101.304 214.618 114.764 220.637 128.724 224.218C158.514 231.861 190.314 228.501 218.624 216.896C251.577 203.386 279.81 178.642 296.32 146.977C304.582 131.137 310.041 113.566 311.394 95.7105C312.137 85.8569 311.728 75.8466 309.98 66.1105C308.155 55.9712 304.397 46.7397 299.231 37.8595C294.066 28.9794 287.905 20.3825 282.837 11.2796C277.731 2.0957 273.466 -7.62063 270.607 -17.7371C269.89 -20.2811 269.258 -22.852 268.72 -25.44C268.465 -26.6795 268.234 -27.9205 268.02 -29.1669C267.95 -29.5661 267.629 -30.4629 267.737 -30.85C267.418 -31.9765 267.924 -31.7889 269.249 -30.2987C270.984 -29.6132 271.498 -29.2425 270.774 -29.1812C270.825 -29.0981 271.537 -29.3727 270.728 -29.1482C270.353 -29.042 269.978 -28.9544 269.602 -28.8483C268.521 -28.5439 267.455 -28.2076 266.386 -27.8639C261.571 -26.3123 256.802 -24.6143 252.045 -22.8954C251.054 -22.5392 250.058 -22.1812 249.069 -21.8194L251.383 -26.2686C254.091 -20.3994 256.783 -14.5249 259.584 -8.69723C265.278 3.17073 267.951 15.5832 266.769 28.7793C265.587 41.9755 261.365 56.2 257.83 69.4821C254.391 82.4181 250.263 95.274 244.017 107.156C232.177 129.68 213.541 147.507 190.605 158.524C167.936 169.407 143.093 172.132 118.272 169.583C104.122 168.132 90.4626 164.816 76.648 161.598C74.3127 161.053 73.095 161.456 71.6735 163.274C70.6451 164.591 69.6573 165.938 68.6454 167.267C66.7858 169.72 64.9262 172.173 63.0722 174.624C60.3114 178.266 55.0791 173.472 57.8132 169.863L57.7946 169.863Z" fill="#231F20"/>
</svg>
