<svg width="293" height="377" viewBox="0 0 293 377" fill="none" xmlns="http://www.w3.org/2000/svg">
<path d="M-31.5198 235.788C-40.9208 217.457 -31.7339 190.886 -9.17322 173.866C15.3414 155.372 46.3547 155.155 60.104 173.38C61.1263 174.735 62.014 176.163 62.7914 177.637C62.8841 177.538 62.985 177.44 63.0975 177.348C68.9809 172.327 77.6022 170.906 85.484 171.179C83.8976 164.809 81.5397 158.614 78.386 152.706C77.9407 152.299 77.6683 151.754 77.5434 151.164C77.208 150.565 76.8645 149.965 76.5117 149.372C66.6097 132.752 51.9357 119.382 35.6796 109.1C31.6797 106.568 27.5381 104.129 23.2154 102.183C19.1197 100.336 21.8016 93.8995 25.9019 95.7436C39.0226 101.648 51.3309 110.597 61.7591 120.405C63.2117 121.77 64.6341 123.173 66.0276 124.605C71.4663 118.966 76.9014 113.321 82.34 107.682C85.424 104.481 90.9844 108.705 87.8715 111.934C82.1558 117.863 76.4447 123.788 70.7325 129.722C75.3005 134.985 79.401 140.623 82.87 146.621C91.2416 146.984 99.6097 147.341 107.981 147.704C108.043 147.708 108.1 147.716 108.162 147.72C113.821 124.611 142.744 109.827 174.89 114.326C208.599 119.044 233.081 143.184 229.569 168.241C228.029 179.242 221.357 188.586 211.501 195.213C216.319 207.083 216.221 219.406 210.056 229.256C201.803 242.451 184.807 247.802 166.581 244.715C166.4 243.934 166.2 243.167 165.992 242.399C167.165 246.677 167.924 251.188 168.204 255.863C170.015 286.066 151.259 311.758 126.314 313.252C117.054 313.808 108.244 310.943 100.73 305.587C101.25 305.959 101.772 306.322 102.309 306.667C100.491 307.085 98.6299 307.36 96.7245 307.48C76.2544 308.707 58.1992 291.233 53.8289 267.301C51.6872 269.405 49.3685 271.409 46.8854 273.282C22.0088 292.049 -10.3635 291.092 -25.4118 271.145C-32.9114 261.204 -34.696 248.423 -31.5187 235.779L-31.5198 235.788ZM71.1782 217.058C71.1594 216.985 71.1441 216.916 71.1253 216.843C71.1441 216.916 71.1629 216.989 71.1782 217.058ZM58.9473 197.148C54.8612 193.72 50.0741 191.207 44.8582 189.622C50.0776 191.212 54.8612 193.72 58.9473 197.148ZM62.9418 201.053C61.8139 199.77 60.6106 198.581 59.3331 197.476C60.6071 198.576 61.8139 199.77 62.9418 201.053ZM68.4615 205.271C68.0832 205.928 67.5822 206.393 67.0249 206.697C68.6348 209.429 69.8638 212.333 70.7246 215.346C75.3732 211.614 80.7204 209.029 86.5253 207.949C86.479 207.597 86.4814 207.224 86.5593 206.816C87.862 199.468 88.2401 192.083 87.6849 184.812C80.3188 190.609 72.9707 197.376 68.465 205.275L68.4615 205.271ZM94.5825 215.211C94.5825 215.211 94.5918 215.204 94.6011 215.197C94.5964 215.201 94.5918 215.204 94.5825 215.211ZM84.7324 228.315C84.7324 228.315 84.7555 228.269 84.7671 228.245C84.7555 228.269 84.744 228.292 84.7324 228.315ZM85.6394 226.67C85.6614 226.631 85.6787 226.596 85.7042 226.563C85.6822 226.601 85.6649 226.636 85.6394 226.67ZM87.6049 223.512C87.6211 223.485 87.6419 223.455 87.6616 223.433C87.6454 223.46 87.6246 223.49 87.6049 223.512ZM89.7558 220.542C89.7558 220.542 89.7813 220.508 89.7963 220.49C89.7778 220.504 89.7708 220.524 89.7558 220.542ZM92.0828 217.767C92.0828 217.767 92.106 217.75 92.1118 217.738C92.1025 217.745 92.0886 217.755 92.0828 217.767ZM79.3341 242.976C79.3582 242.864 79.3823 242.751 79.4111 242.634C79.387 242.747 79.3582 242.864 79.3341 242.976ZM79.8411 240.897C79.8584 240.833 79.8803 240.766 79.894 240.697C79.8768 240.761 79.8549 240.829 79.8411 240.897ZM80.3396 239.116C80.3695 239.02 80.396 238.92 80.4213 238.828C80.3914 238.924 80.3614 239.019 80.3396 239.116ZM80.9665 237.128C80.9873 237.069 81.0081 237.009 81.03 236.942C81.0092 237.001 80.9884 237.06 80.9665 237.128ZM82.3144 233.489C82.3387 233.435 82.3583 233.383 82.3826 233.329C82.3583 233.383 82.3341 233.438 82.3144 233.489ZM83.0445 231.773C83.0676 231.727 83.0872 231.676 83.1068 231.624C83.0837 231.671 83.0641 231.722 83.0445 231.773ZM71.4715 218.402C71.4844 218.458 71.4973 218.514 71.5056 218.573C71.4927 218.517 71.4798 218.462 71.4715 218.402ZM71.9886 221.617C71.9981 221.697 72.0076 221.777 72.0137 221.853C72.0041 221.773 71.9946 221.692 71.9886 221.617ZM72.2548 224.933C72.2597 225.017 72.2611 225.096 72.266 225.18C72.2646 225.101 72.2597 225.017 72.2548 224.933ZM72.262 228.322C72.261 228.388 72.2565 228.45 72.2509 228.519C72.2519 228.453 72.2564 228.391 72.262 228.322ZM72.0146 231.749C72.0146 231.749 72.0124 231.794 72.0055 231.814C72.0089 231.79 72.0077 231.769 72.0146 231.749ZM71.811 233.352C71.8019 233.417 71.7927 233.482 71.7801 233.542C71.7892 233.477 71.7984 233.412 71.811 233.352ZM78.5627 246.945C78.581 246.814 78.6027 246.689 78.6245 246.563C78.6027 246.689 78.5845 246.819 78.5627 246.945ZM78.9485 244.782C78.9623 244.713 78.9795 244.649 78.9887 244.584C78.9749 244.653 78.9576 244.717 78.9485 244.782ZM78.2935 248.779C78.2979 248.717 78.3106 248.657 78.3185 248.6C78.3141 248.662 78.3014 248.722 78.2935 248.779ZM77.7837 259.388C77.7798 259.238 77.7723 259.083 77.7731 258.93C77.777 259.08 77.7844 259.235 77.7837 259.388ZM77.7504 257.046C77.7504 257.046 77.7502 256.988 77.7501 256.959C77.7502 256.988 77.7503 257.017 77.7504 257.046ZM77.8945 252.874C77.8978 252.821 77.9046 252.772 77.9034 252.722C77.9 252.775 77.8932 252.824 77.8945 252.874ZM78.0474 251.011C78.0586 250.871 78.0745 250.728 78.0858 250.589C78.0699 250.732 78.0586 250.871 78.0474 251.011ZM69.8223 241.923C69.8223 241.923 69.8142 241.951 69.8084 241.963C69.8142 241.951 69.8165 241.935 69.8223 241.923ZM20.9593 188.419C21.8019 188.271 22.6457 188.145 23.4907 188.039C22.6492 188.149 21.8054 188.276 20.9593 188.419ZM67.146 248.705C67.146 248.705 67.1749 248.647 67.183 248.619C67.1703 248.65 67.1541 248.677 67.146 248.705ZM28.5149 187.613C29.7589 187.563 31.0007 187.558 32.224 187.597C30.9961 187.562 29.7624 187.567 28.5149 187.613ZM35.8652 187.828C37.069 187.947 38.2578 188.113 39.4327 188.319C38.2578 188.113 37.0725 187.951 35.8652 187.828ZM43.15 189.134C42.9975 189.096 42.8451 189.058 42.6973 189.017C42.8497 189.055 43.0022 189.093 43.15 189.134ZM67.3036 182.914C66.6251 183.491 65.9188 183.733 65.2467 183.73C66.3493 187.566 66.7793 191.64 66.5619 195.831C71.7314 189.15 78.2926 183.289 84.9349 178.125C78.6939 177.933 71.9052 178.983 67.299 182.917L67.3036 182.914ZM95.9547 191.178C95.6327 190.781 95.3106 190.383 94.9839 189.988C95.0374 195.803 94.5456 201.628 93.5444 207.387C96.7758 207.461 99.9388 207.995 102.973 208.947C103.415 208.694 103.86 208.453 104.313 208.213C104.097 207.822 103.952 207.349 103.909 206.799C103.441 200.918 99.5356 195.635 95.9582 191.183L95.9547 191.178ZM93.5253 174.849C93.7744 176.183 93.9851 177.524 94.1749 178.867C101.487 185.818 109.755 195.31 110.79 205.533C111.992 205.158 113.223 204.849 114.466 204.595C111.11 196.458 110.075 188.107 111.704 180.469C107.982 178.026 102.836 177.045 98.6296 176.016C96.9355 175.604 95.2344 175.213 93.5335 174.85L93.5253 174.849ZM127.15 204.187C127.582 204.247 128.009 204.311 128.438 204.388C128.012 204.316 127.582 204.247 127.15 204.187ZM147.964 201.783C148.107 201.828 148.249 201.881 148.392 201.926C148.249 201.881 148.102 201.831 147.964 201.783ZM117.693 182.316C117.782 182.424 117.878 182.533 117.972 182.637C117.878 182.533 117.786 182.42 117.693 182.316ZM123.862 188.476C123.918 188.521 123.974 188.567 124.025 188.615C123.969 188.57 123.914 188.525 123.862 188.476ZM126.415 190.556C126.523 190.642 126.631 190.728 126.744 190.81C126.636 190.724 126.528 190.638 126.415 190.556ZM129.395 192.721C129.528 192.81 129.657 192.894 129.785 192.987C129.652 192.898 129.523 192.813 129.395 192.721ZM131.39 205.009C131.867 205.129 132.333 205.265 132.8 205.401C132.333 205.265 131.859 205.128 131.39 205.009ZM135.726 206.383C136.306 206.602 136.883 206.836 137.45 207.086C136.878 206.839 136.301 206.605 135.726 206.383ZM138.145 207.399C138.566 207.59 138.988 207.782 139.402 207.994C138.987 207.79 138.566 207.59 138.145 207.399ZM143.965 210.625C144.33 210.867 144.693 211.117 145.049 211.366C144.69 211.112 144.326 210.862 143.965 210.625ZM149.633 215.03C150.039 215.394 150.435 215.765 150.831 216.144C150.435 215.765 150.034 215.397 149.633 215.03ZM151.472 216.781C151.789 217.096 152.105 217.418 152.412 217.747C152.1 217.421 151.788 217.104 151.472 216.781ZM153.086 218.477C153.374 218.791 153.661 219.113 153.94 219.435C153.657 219.109 153.374 218.791 153.086 218.477ZM154.606 220.221C154.875 220.549 155.145 220.878 155.413 221.214C155.148 220.882 154.88 220.546 154.606 220.221ZM137.565 197.517C137.499 197.487 137.433 197.449 137.372 197.415C137.438 197.445 137.503 197.484 137.565 197.517ZM134.49 195.883C134.351 195.805 134.216 195.732 134.082 195.651C134.221 195.729 134.351 195.805 134.49 195.883ZM131.211 193.921C131.082 193.837 130.952 193.752 130.818 193.671C130.948 193.756 131.077 193.84 131.211 193.921ZM86.6072 153.728C88.6787 158.115 90.4158 162.667 91.7603 167.383C94.8235 167.978 97.866 168.661 100.884 169.428C104.207 170.271 107.81 171.107 111.135 172.436C108.365 166.785 106.952 160.751 107.194 154.604C107.136 154.604 107.077 154.605 107.019 154.605C100.215 154.312 93.4112 154.02 86.6072 153.728ZM150.111 202.457C150.226 202.494 150.342 202.522 150.462 202.556C150.347 202.519 150.231 202.49 150.111 202.457ZM184.069 205.188C184.26 205.161 184.454 205.138 184.649 205.108C184.459 205.135 184.265 205.158 184.069 205.188ZM185.655 204.954C185.833 204.929 186.007 204.899 186.189 204.871C186.015 204.9 185.837 204.925 185.655 204.954ZM189.163 204.324C189.163 204.324 189.197 204.32 189.214 204.314C189.197 204.32 189.184 204.323 189.163 204.324ZM195.127 202.818C195.288 202.769 195.448 202.721 195.605 202.669C195.445 202.717 195.284 202.765 195.127 202.818ZM198.011 201.88C198.15 201.833 198.281 201.785 198.421 201.739C198.285 201.79 198.15 201.833 198.011 201.88ZM199.485 201.344C199.586 201.304 199.69 201.269 199.787 201.232C199.686 201.272 199.581 201.307 199.485 201.344ZM203.833 199.52C203.918 199.478 203.998 199.439 204.086 199.402C204.001 199.444 203.921 199.482 203.833 199.52ZM206.38 198.253C206.501 198.191 206.618 198.125 206.735 198.066C206.614 198.128 206.497 198.195 206.38 198.253ZM183.09 205.309C182.891 205.335 182.693 205.353 182.494 205.379C182.697 205.357 182.891 205.335 183.09 205.309ZM181.504 205.485C181.306 205.503 181.112 205.526 180.915 205.544C181.112 205.526 181.31 205.508 181.504 205.485ZM172.861 205.874C172.65 205.873 172.443 205.869 172.232 205.86C172.439 205.864 172.654 205.869 172.861 205.874ZM167.888 205.671C167.657 205.656 167.435 205.641 167.202 205.621C167.427 205.64 167.657 205.656 167.888 205.671ZM166.189 205.533C165.971 205.515 165.754 205.497 165.537 205.471C165.758 205.494 165.976 205.512 166.189 205.533ZM164.413 205.351C164.229 205.329 164.04 205.311 163.857 205.29C164.04 205.311 164.224 205.333 164.413 205.351ZM151.863 202.955C152.047 203.006 152.231 203.057 152.42 203.104C152.236 203.053 152.047 203.006 151.863 202.955ZM156.025 203.974C156.102 203.989 156.182 204.008 156.259 204.023C156.182 204.008 156.106 203.993 156.025 203.974ZM159.76 204.696C159.946 204.73 160.128 204.76 160.319 204.791C160.137 204.761 159.95 204.727 159.76 204.696ZM156.046 222.033C156.308 222.381 156.574 222.734 156.828 223.089C156.566 222.733 156.313 222.378 156.046 222.033ZM165.278 239.996C165.431 240.478 165.574 240.967 165.712 241.459C165.569 240.97 165.431 240.478 165.278 239.996ZM157.422 223.915C157.698 224.311 157.966 224.714 158.229 225.12C157.961 224.717 157.695 224.306 157.422 223.915ZM158.723 225.861C159.131 226.5 159.53 227.153 159.914 227.817C159.53 227.153 159.135 226.504 158.723 225.861ZM160.345 228.592C160.592 229.025 160.834 229.461 161.066 229.905C160.834 229.461 160.587 229.028 160.345 228.592ZM161.552 230.857C161.749 231.254 161.955 231.652 162.143 232.056C161.95 231.656 161.749 231.254 161.552 230.857ZM163.59 235.334C163.757 235.74 163.912 236.147 164.07 236.56C163.912 236.147 163.752 235.743 163.59 235.334ZM164.479 237.642C164.631 238.066 164.777 238.502 164.925 238.929C164.782 238.498 164.631 238.066 164.479 237.642ZM121.948 203.837C121.222 203.839 120.493 203.857 119.756 203.903C120.488 203.861 121.222 203.839 121.948 203.837ZM126.29 204.079C125.844 204.029 125.406 203.988 124.958 203.955C125.401 203.992 125.844 204.029 126.29 204.079ZM115.711 204.362C115.744 204.359 115.783 204.352 115.813 204.344C115.779 204.347 115.741 204.354 115.711 204.362ZM100.239 305.236C99.7613 304.883 99.2847 304.521 98.8175 304.153C99.2882 304.526 99.7613 304.883 100.239 305.236ZM98.5821 303.966C98.0705 303.559 97.5704 303.127 97.0751 302.693C97.5704 303.127 98.0751 303.555 98.5821 303.966ZM96.6088 302.287C96.1181 301.849 95.6331 301.399 95.1621 300.939C95.6366 301.404 96.1227 301.846 96.6088 302.287ZM94.951 300.727C94.5092 300.296 94.0777 299.849 93.6474 299.395C94.0742 299.845 94.5092 300.296 94.951 300.727ZM93.2287 298.946C92.7633 298.445 92.3119 297.933 91.8663 297.41C92.3119 297.933 92.768 298.441 93.2287 298.946ZM91.6306 297.136C91.2433 296.671 90.8571 296.198 90.4802 295.718C90.8571 296.198 91.2387 296.675 91.6306 297.136ZM90.115 295.243C89.6948 294.686 89.2747 294.129 88.8696 293.554C89.2747 294.129 89.6902 294.69 90.115 295.243ZM78.1337 264.389C78.2185 265.206 78.3162 266.021 78.4358 266.827C78.3208 266.018 78.2232 265.203 78.1337 264.389ZM78.4631 267.017C78.5734 267.771 78.7011 268.52 78.8334 269.265C78.6964 268.523 78.5734 267.771 78.4631 267.017ZM79.5063 272.493C79.671 273.184 79.845 273.869 80.0283 274.546C79.845 273.869 79.6675 273.18 79.5063 272.493ZM80.1764 275.09C80.3866 275.842 80.6073 276.578 80.8407 277.312C80.6073 276.578 80.3831 275.837 80.1764 275.09ZM80.9755 277.713C81.1855 278.348 81.4 278.98 81.632 279.606C81.4081 278.981 81.1855 278.348 80.9755 277.713ZM81.8101 280.113C82.0761 280.823 82.3513 281.525 82.6369 282.213C82.3478 281.521 82.0726 280.818 81.8101 280.113ZM85.05 287.332C85.3422 287.884 85.6402 288.424 85.9464 288.965C85.6391 288.432 85.3422 287.884 85.05 287.332ZM86.1801 289.371C86.5411 289.994 86.9126 290.603 87.2933 291.204C86.9126 290.603 86.5376 289.99 86.1801 289.371ZM87.6109 291.692C87.9461 292.204 88.2823 292.708 88.6279 293.204C88.2823 292.708 87.9426 292.199 87.6109 291.692ZM65.4994 251.957C65.4994 251.957 65.4901 251.964 65.4936 251.969C65.4936 251.969 65.5029 251.962 65.4994 251.957ZM62.5781 256.783C62.5781 256.783 62.5735 256.786 62.5689 256.79C62.5689 256.79 62.5735 256.786 62.5781 256.783ZM60.3475 259.907L60.3335 259.918C60.3335 259.918 60.3428 259.911 60.3475 259.907ZM18.4201 188.915C16.4121 189.352 14.401 189.9 12.3924 190.549C14.3975 189.896 16.4121 189.352 18.4201 188.915ZM-23.0537 217.181C-23.0537 217.181 -23.0444 217.174 -23.0433 217.166C-23.0433 217.166 -23.0525 217.173 -23.0537 217.181ZM-21.4971 214.987C-21.4971 214.987 -21.4832 214.977 -21.482 214.968C-21.4867 214.972 -21.496 214.979 -21.4971 214.987ZM-19.8299 212.834C-19.8299 212.834 -19.816 212.823 -19.8102 212.811C-19.8195 212.818 -19.8242 212.822 -19.8299 212.834ZM-18.0615 210.727C-18.0615 210.727 -18.0476 210.717 -18.0418 210.705C-18.0511 210.712 -18.0557 210.716 -18.0615 210.727ZM-16.1801 208.675C-16.1801 208.675 -16.1615 208.661 -16.1569 208.657C-16.1662 208.664 -16.1755 208.671 -16.1801 208.675ZM-14.2021 206.673C-14.2021 206.673 -14.1835 206.659 -14.1742 206.652C-14.1835 206.659 -14.1928 206.666 -14.2021 206.673ZM-12.1076 204.728C-12.1076 204.728 -12.0937 204.718 -12.089 204.714C-12.0937 204.718 -12.103 204.725 -12.1076 204.728ZM-9.91526 202.856C-9.91526 202.856 -9.90598 202.849 -9.90134 202.845C-9.90134 202.845 -9.91062 202.852 -9.91526 202.856Z" fill="#AFBC6B"/>
<path d="M39.6529 81.5529C52.7735 87.4573 65.0818 96.4068 75.51 106.214C89.9847 119.821 101.452 136.614 106.275 156.068C109.323 168.363 109.431 181.142 107.223 193.593C106.439 198.008 99.5274 197.061 100.31 192.625C103.835 172.758 100.627 152.588 90.258 135.185C79.8887 117.781 65.682 105.195 49.4294 94.9175C45.4295 92.386 41.2879 89.9467 36.9652 88.0009C32.8695 86.1533 35.5514 79.7169 39.6517 81.561L39.6529 81.5529Z" fill="#231F20"/>
<path d="M101.623 97.743C95.3881 104.209 89.1565 110.68 82.926 117.143C79.842 120.343 74.2816 116.12 77.3945 112.89C83.6296 106.424 89.8613 99.953 96.0918 93.4903C99.1757 90.2899 104.736 94.5134 101.623 97.743Z" fill="#231F20"/>
<path d="M95.0979 132.363C103.973 132.746 112.856 133.13 121.731 133.513C126.22 133.71 125.216 140.614 120.764 140.426C111.888 140.043 103.005 139.659 94.1301 139.276C89.6413 139.08 90.6452 132.176 95.0979 132.363Z" fill="#231F20"/>
<path d="M103.224 152.769C107.051 153.45 110.857 154.286 114.625 155.245C119.917 156.584 125.928 157.911 130.385 161.241C133.989 163.933 129.729 169.455 126.132 166.772C122.535 164.09 116.833 162.922 112.362 161.831C109.014 161.014 105.643 160.281 102.253 159.678C97.8379 158.894 98.7895 151.979 103.221 152.765L103.224 152.769Z" fill="#231F20"/>
<path d="M106.879 163.704C114.532 170.827 123.706 180.911 124.577 191.797C124.936 196.259 118.009 197.108 117.647 192.612C117.179 186.731 113.274 181.448 109.696 176.995C107.409 174.147 104.898 171.359 102.621 169.239C99.3607 166.201 103.591 160.65 106.874 163.708L106.879 163.704Z" fill="#231F20"/>
<path d="M103.292 164.298C96.0386 163.391 86.825 163.795 81.046 168.723C77.6322 171.64 73.4365 166.059 76.8445 163.153C84.0108 157.033 95.2477 156.261 104.26 157.385C108.723 157.944 107.751 164.852 103.292 164.298Z" fill="#231F20"/>
<path d="M106.431 166.809C97.5633 173.396 87.7489 181.383 82.2111 191.081C80.0104 194.94 73.5497 192.284 75.7713 188.395C81.9744 177.532 92.2688 168.637 102.229 161.239C105.833 158.564 110.044 164.126 106.431 166.809Z" fill="#231F20"/>
<path d="M-8.87681 254.862C3.26454 270.637 25.3939 271.879 42.7894 265.128C61.9759 257.681 78.5965 240.365 81.9661 219.617C83.3732 210.93 82.2833 201.667 77.6587 194.05C72.9569 186.302 65.3712 180.919 56.6892 178.475C36.6475 172.847 14.2949 181.977 0.372365 196.565C-13.5502 211.154 -22.4778 236.466 -8.87681 254.862C-6.20635 258.469 -11.7734 262.684 -14.4462 259.063C-27.9701 240.77 -23.3905 216.124 -10.592 198.771C3.39857 179.812 27.8576 167.201 51.6597 170.37C62.055 171.754 71.7955 176.393 78.9286 184.149C86.0616 191.905 89.5134 202.118 89.5073 212.42C89.4858 236.293 73.0989 257.365 52.6698 268.262C31.2585 279.682 1.44935 279.719 -14.4427 259.068C-17.1828 255.513 -11.6169 251.307 -8.87331 254.867L-8.87681 254.862Z" fill="#231F20"/>
<path d="M75.6469 191.096C56.3122 165.979 17.6139 177.652 -0.645595 197.661C-6.98983 204.61 -11.9372 212.938 -14.3139 222.086C-15.195 225.474 -19.386 226.145 -21.0137 222.887C-32.5804 199.716 -17.3163 172.58 0.991053 158.041C19.3773 143.442 49.1472 134.79 69.7209 150.198C82.2467 159.58 85.9345 175.637 82.5528 190.394C81.9071 193.197 78.2171 194.619 76.3157 192.012L75.6469 191.096C73.0031 187.476 78.562 183.26 81.2163 186.894L81.8851 187.81L75.648 189.428C78.2511 178.099 76.659 165.543 67.5692 157.443C60.2396 150.913 50.2208 148.618 40.5985 149.243C17.4711 150.742 -4.93026 166.95 -14.0588 188.183C-18.466 198.434 -19.6228 210.106 -14.5269 220.317L-21.2268 221.118C-12.4566 187.353 26.4101 161.047 61.0048 172.547C69.0131 175.208 76.0664 180.213 81.2116 186.898C83.9517 190.453 78.3858 194.659 75.6422 191.1L75.6469 191.096Z" fill="#231F20"/>
<path d="M82.3784 198.376C92.6775 190.308 105.528 187.794 118.059 191.536C120.457 192.254 121.013 196.262 118.816 197.54C86.3347 216.459 87.9068 269.6 118.185 289.724C120.965 291.574 119.167 295.369 116.47 295.955C99.4962 299.635 83.0548 290.825 73.5522 276.897C71.021 273.185 68.9004 269.148 67.2841 264.949C66.4724 262.831 65.7989 260.674 65.23 258.481C64.6894 256.413 63.4321 253.385 64.5881 251.384C65.6619 249.526 67.7992 247.928 69.198 246.268C70.737 244.437 72.1792 242.526 73.5108 240.546C75.8973 236.99 77.8609 233.164 79.3845 229.16C82.6003 220.719 83.6621 211.237 81.2399 202.447C80.0582 198.168 86.532 195.541 87.7266 199.876C93.2851 220.006 84.7162 240.948 70.3486 255.246L71.0485 252.708C75.0383 273.635 92.5169 294.043 115.656 289.017L113.941 295.248C86.382 276.933 80.6253 235.834 97.6832 208.604C101.918 201.842 107.718 195.987 114.628 191.969L115.385 197.973C105.23 194.937 94.8301 197.496 86.5927 203.943C83.0587 206.711 78.8526 201.145 82.3912 198.374L82.3784 198.376Z" fill="#231F20"/>
<path d="M124.702 137.448C122.001 158.282 139.493 174.769 157.171 182.187C177.602 190.754 203.804 191.013 222.763 178.495C230.447 173.419 236.895 166.086 239.197 156.994C241.499 147.902 239.506 138.598 234.651 130.85C222.698 111.772 198.387 102.541 176.612 102.802C154.837 103.062 128.31 113.455 124.702 137.448C124.034 141.892 117.124 140.929 117.789 136.481C121.347 112.816 144.565 99.4289 166.524 96.525C191.515 93.2194 219.851 101.511 236.323 121.279C243.281 129.634 247.513 140.109 247.08 151.061C246.647 162.013 241.465 171.333 233.876 178.573C215.461 196.136 186.269 198.438 162.845 191.59C139.421 184.742 114.241 163.837 117.792 136.486C118.37 132.029 125.28 132.992 124.705 137.453L124.702 137.448Z" fill="#231F20"/>
<path d="M139.657 295.605C158.533 294.291 172.115 278.633 176.649 261.108C181.755 241.387 176.841 217.902 161.503 203.817C147.831 191.265 127.989 189.492 113.253 201.323C97.5478 213.935 92.4764 236.135 96.1542 255.258C100.139 276.014 116.804 296.744 139.654 295.6C144.11 295.377 144.971 302.301 140.469 302.53C117.569 303.675 99.0163 286.612 91.819 265.855C84.3614 244.347 87.671 217.92 103.561 200.9C110.467 193.499 119.396 188.219 129.468 186.636C139.824 185.005 150.287 187.628 159.087 193.172C179.086 205.78 187.875 231.563 185.029 254.29C182.184 277.017 165.51 300.788 140.472 302.535C136.008 302.844 135.16 295.918 139.657 295.605Z" fill="#231F20"/>
<path d="M133.909 193.173C132.122 193.305 130.367 193.537 128.61 193.872C127.105 194.155 125.504 193.047 124.955 191.692C120.916 181.638 119.829 170.668 123.544 160.35C124.393 157.99 128.171 157.361 129.549 159.592C147.842 189.179 194.733 197.025 223.138 178.233C225.004 177 227.609 177.518 228.486 179.733C233.95 193.54 233.682 209.923 223.349 221.461C212.472 233.6 195.309 236.469 179.843 233.972C178.154 233.703 177.241 232.483 176.862 230.928C172.073 211.142 155.8 192.082 133.91 193.165C129.45 193.384 128.594 186.456 133.095 186.235C159.14 184.945 178.06 206.414 183.793 230.104L180.811 227.06C193.61 229.121 208.674 227.406 217.819 217.2C226.965 206.995 226.63 193.993 222 182.295L227.348 183.795C210.793 194.748 189.722 197.361 170.486 193.478C151.25 189.594 134.017 180.005 123.988 163.787L129.993 163.029C126.896 171.628 128.106 180.78 131.456 189.111L127.801 186.931C129.561 186.6 131.313 186.364 133.1 186.232C137.563 185.902 138.411 192.828 133.914 193.162L133.909 193.173Z" fill="#231F20"/>
</svg>
