<svg width="200" height="380" viewBox="0 0 200 380" fill="none" xmlns="http://www.w3.org/2000/svg">
<path d="M-70.286 246.35C-113.401 185.758 -112.609 111.206 -68.5168 79.8339C-24.4246 48.4618 46.271 72.1492 89.3862 132.741C132.501 193.333 131.709 267.885 87.617 299.257C43.5247 330.629 -27.1709 306.942 -70.286 246.35Z" fill="#AFBC6B"/>
<path d="M11.9687 211.429C9.64101 213.71 7.31901 215.992 4.99226 218.267C3.65147 219.584 1.62689 219.996 0.0836853 218.706C-1.24792 217.592 -1.7093 215.124 -0.355125 213.797C1.9726 211.516 4.2946 209.234 6.62135 206.959C7.96214 205.642 9.98671 205.23 11.5299 206.52C12.8615 207.634 13.3229 210.102 11.9687 211.429Z" fill="#231F20"/>
<path d="M29.1092 232.354C26.5639 235.087 24.0196 237.815 21.4744 240.548C18.427 243.815 13.0576 239.371 16.127 236.078C18.6723 233.345 21.2166 230.617 23.7618 227.884C26.8092 224.618 32.1786 229.061 29.1092 232.354Z" fill="#231F20"/>
<path d="M49.947 247.219C48.7062 250.737 47.4645 254.261 46.2238 257.78C45.5953 259.552 43.1827 260.206 41.5936 259.467C39.748 258.608 39.2771 256.615 39.9066 254.837C41.1473 251.318 42.389 247.794 43.6298 244.276C44.2583 242.504 46.6709 241.85 48.2599 242.589C50.1056 243.448 50.5764 245.441 49.947 247.219Z" fill="#231F20"/>
<path d="M67.8607 250.327C68.5127 254.005 69.16 257.676 69.812 261.355C70.5973 265.78 63.6577 266.459 62.8791 262.065C62.2271 258.386 61.5798 254.715 60.9278 251.036C60.1426 246.611 67.0821 245.932 67.8607 250.327Z" fill="#231F20"/>
<path d="M84.7879 237.687C87.3863 240.368 89.979 243.049 92.5774 245.73C93.8866 247.081 94.3145 249.085 93.0162 250.639C91.9093 251.965 89.4273 252.436 88.1076 251.077C85.5092 248.396 82.9165 245.715 80.3181 243.034C79.0089 241.683 78.581 239.679 79.8793 238.126C80.9862 236.799 83.4682 236.328 84.7879 237.687Z" fill="#231F20"/>
<path d="M98.9727 224.95L87.8711 223.456C83.4265 222.854 84.5902 215.984 89.0291 216.585L100.131 218.079C104.575 218.681 103.412 225.551 98.9727 224.95Z" fill="#231F20"/>
<path d="M95.6246 198.435C91.9831 199.252 88.3406 200.075 84.6991 200.892C82.8626 201.307 81.0483 199.494 80.8776 197.781C80.6714 195.721 82.1468 194.373 83.9891 193.96C87.6306 193.142 91.273 192.32 94.9145 191.502C96.751 191.088 98.5654 192.901 98.736 194.614C98.9423 196.674 97.4668 198.021 95.6246 198.435Z" fill="#231F20"/>
<path d="M-13.6471 192.237C-10.9579 190.677 -8.2697 189.122 -5.58053 187.561C-3.95498 186.616 -1.88651 186.747 -0.7191 188.381C0.294997 189.806 0.0995548 192.293 -1.53841 193.242C-4.22758 194.803 -6.9158 196.357 -9.60498 197.918C-11.2305 198.863 -13.299 198.732 -14.4664 197.099C-15.4805 195.674 -15.285 193.186 -13.6471 192.237Z" fill="#231F20"/>
<path d="M69.7545 233.74C71.6414 232.362 72.8579 230.665 73.6912 228.061C74.4333 225.755 74.5638 222.255 74.2968 219.437C73.3867 209.673 69.0975 200.218 64.5183 191.679C57.5064 178.603 48.7368 166.207 39.038 154.992C32.3105 147.216 24.6103 139.376 15.4471 134.487C10.2122 131.691 4.08986 129.723 -0.915135 132.271C-2.45447 133.054 -4.16443 134.744 -5.02771 136.477C-6.18609 138.808 -6.6841 141.274 -6.71317 144.137C-6.81026 153.448 -2.89977 162.739 1.13681 170.933C7.46558 183.801 15.8063 195.841 24.8083 206.962C32.4893 216.454 41.3686 226.276 52.2781 232.125C55.5512 233.878 59.0692 235.331 62.8186 235.586C65.2583 235.75 67.7663 235.124 69.7525 233.751C73.4449 231.2 77.488 236.875 73.7947 239.432C67.576 243.731 59.9489 243.004 53.2446 240.296C43.1157 236.21 34.5986 228.256 27.2689 220.385C16.3139 208.622 6.68381 195.322 -1.19608 181.316C-6.80077 171.35 -12.0267 160.465 -13.3815 148.972C-14.2041 142.009 -13.303 134.146 -8.0451 129.014C-2.78721 123.883 4.38616 123.213 11.0631 125.175C21.0385 128.11 29.5353 135.172 36.7698 142.385C48.0227 153.603 57.6819 166.626 65.9196 180.185C72.8248 191.554 79.5062 204.251 81.1219 217.655C82.0792 225.636 80.6676 234.396 73.7956 239.426C70.1689 242.077 66.1325 236.398 69.7535 233.746L69.7545 233.74Z" fill="#231F20"/>
<path d="M58.2742 151.969C60.7909 149.72 63.3133 147.471 65.83 145.222C67.2365 143.969 69.6811 144.629 70.6914 146.041C71.8816 147.714 71.2796 149.644 69.8721 150.903C67.3554 153.152 64.833 155.4 62.3163 157.649C60.9098 158.902 58.4652 158.243 57.4549 156.83C56.2646 155.157 56.8667 153.227 58.2742 151.969Z" fill="#231F20"/>
<path d="M72.1914 171.585C74.9415 169.629 77.6915 167.672 80.4415 165.715C84.1016 163.111 88.1437 168.792 84.4836 171.396C81.7336 173.353 78.9836 175.309 76.2335 177.266C72.5735 179.87 68.5314 174.19 72.1914 171.585Z" fill="#231F20"/>
<path d="M-0.745076 119.51C-2.07637 116.648 -3.40863 113.791 -4.7342 110.93C-5.53013 109.223 -4.37779 107.068 -2.7108 106.436C-0.842248 105.727 0.986886 106.753 1.78282 108.46C3.11411 111.322 4.44634 114.179 5.77191 117.04C6.56784 118.747 5.41551 120.902 3.74852 121.534C1.87997 122.243 0.0508545 121.217 -0.745076 119.51Z" fill="#231F20"/>
<path d="M22.1238 120.827L24.608 112.831C25.164 111.034 27.6987 110.425 29.2381 111.144C31.1334 112.022 31.4879 113.972 30.9252 115.774L28.441 123.77C27.885 125.566 25.3503 126.175 23.8108 125.457C21.9156 124.578 21.5611 122.628 22.1238 120.827Z" fill="#231F20"/>
<path d="M42.0255 135.869C43.7614 133.571 45.5039 131.268 47.2398 128.97C49.9451 125.392 55.2924 129.862 52.5872 133.439C50.8513 135.738 49.1088 138.041 47.3729 140.339C44.6676 143.917 39.3202 139.447 42.0255 135.869Z" fill="#231F20"/>
<path d="M109.028 133.171C93.8004 111.891 74.1053 93.497 50.7702 81.4321C31.3187 71.3761 9.00037 65.5419 -12.9353 68.7579C-33.0835 71.7099 -51.0062 83.0159 -62.1721 100.071C-74.0137 118.167 -77.4322 140.721 -75.74 161.952C-73.6959 187.593 -64.4229 212.445 -50.7565 234.115C-36.5838 256.59 -17.4889 276.413 5.39272 290.086C24.5343 301.527 46.8694 309.183 69.3991 307.928C89.7597 306.79 108.897 297.85 121.815 281.896C134.732 265.943 140.502 243.591 140.207 222.625C139.853 197.44 132.211 172.521 120.019 150.593C116.679 144.589 112.993 138.786 109.021 133.182C106.429 129.518 112.104 125.475 114.701 129.14C130.668 151.698 142.058 177.79 145.859 205.271C149.042 228.278 146.778 252.993 135.578 273.676C125.291 292.681 107.687 306.95 86.6548 312.285C64.0539 318.015 40.22 314.081 19.0657 304.939C-31.1039 283.264 -69.0948 233.457 -80.1208 180.363C-84.9577 157.071 -84.4194 131.9 -75.1087 109.745C-66.6398 89.5789 -50.4282 73.2972 -29.7487 65.8299C17.956 48.6026 69.8098 77.5454 101.253 112.358C106.067 117.686 110.538 123.303 114.714 129.136C117.326 132.785 111.651 136.828 109.033 133.178L109.028 133.171Z" fill="#231F20"/>
</svg>
