<svg width="287" height="433" viewBox="0 0 287 433" fill="none" xmlns="http://www.w3.org/2000/svg">
<path d="M237.103 188.018C226.634 185.338 216.146 184.104 205.873 184.177C195.107 213.351 163.413 277.03 96.4471 266.546C96.4067 266.703 96.3664 266.861 96.326 267.019C81.0631 326.643 119.344 387.948 181.83 403.944C244.315 419.939 307.344 384.567 322.607 324.943C337.87 265.319 299.589 204.013 237.103 188.018Z" fill="#F18153"/>
<path d="M44.0126 220.17C51.0694 203.4 60.6715 187.335 71.294 172.624C88.3081 149.05 112.779 123.995 143.508 121.653C164.564 120.05 183.886 129.936 199.644 143.154L198.466 138.898C197.879 143.787 195.49 148.97 193.796 153.53C193.428 154.52 193.044 155.513 192.662 156.5C191.918 158.394 192.189 157.722 191.385 159.639C190.303 162.225 189.159 164.788 187.967 167.323C185.262 173.059 182.276 178.67 178.964 184.091C163.901 208.782 140.673 230.231 110.387 232.816C86.2994 234.865 62.9359 225.915 42.3673 214.129C37.4066 211.286 32.9984 218.992 37.9591 221.835C57.8482 233.233 80.1776 241.987 103.41 241.994C120.369 241.991 137.007 236.859 151.05 227.367C174.733 211.357 190.45 185.871 200.85 159.741C203.183 153.879 205.754 147.681 206.988 141.461C207.811 137.32 203.93 135.181 201.061 132.966C196.572 129.503 191.915 126.28 186.979 123.49C178.601 118.757 169.409 115.144 159.879 113.597C125.139 107.957 95.0906 129.683 73.8471 155.014C58.8761 172.873 46.1494 193.299 36.792 214.672C36.6284 215.042 36.4649 215.413 36.3085 215.785C34.1211 220.99 41.8067 225.446 44.0142 220.193L44.0126 220.17Z" fill="#231F20"/>
<path d="M230.643 153.548C220.038 150.894 209.166 149.546 198.226 149.571C196.111 149.571 194.689 151.07 194.011 152.913C182.409 184.216 161.048 218.092 127.414 229.249C115.348 233.253 102.518 233.978 89.9853 232.083C87.5959 231.723 85.2453 232.763 84.5853 235.281C75.3499 270.375 84.5618 307.824 107.102 335.918C130.754 365.397 168.071 382.387 205.752 382.053C241.683 381.73 277.204 365.291 299.3 336.689C321.692 307.705 328.675 268.973 317.476 234.039C306.276 199.105 278.507 171.007 244.205 157.867C239.769 156.166 235.238 154.747 230.643 153.548C225.117 152.11 222.909 160.707 228.442 162.147C261.705 170.814 290.09 193.587 304.508 224.955C318.662 255.743 316.659 292.352 299.14 321.355C281.622 350.358 251.084 368.63 218.164 372.404C183.341 376.393 147.532 364.432 122.523 339.774C98.9726 316.552 86.1264 282.861 90.7217 249.817C91.2976 245.658 92.1174 241.531 93.1861 237.475L87.786 240.674C111.16 244.214 134.489 239.489 153.726 225.456C169.923 213.637 182.304 197.307 191.656 179.712C195.877 171.783 199.486 163.53 202.612 155.107L198.397 158.449C208.58 158.429 218.568 159.68 228.449 162.148C233.989 163.536 236.204 154.941 230.651 153.55L230.643 153.548Z" fill="#231F20"/>
<path d="M232.893 174.182C234.807 158.356 242.028 139.872 256.592 131.865C258.688 130.714 259.343 127.797 258.149 125.781C257.918 125.402 257.739 124.997 257.544 124.596C256.99 123.447 257.84 125.496 257.312 124.04C257.081 123.393 256.833 122.749 256.612 122.09C255.134 117.573 254.54 113.482 254.335 108.795C253.495 89.6751 260.484 70.9334 269.213 54.2557L261.058 50.9466C260.831 51.5912 260.591 52.2321 260.351 52.873C260.072 53.6033 259.793 54.3336 259.515 55.064C259.36 55.4596 259.206 55.8552 259.051 56.2507C258.936 56.5497 258.303 58.1284 258.561 57.4768C256.138 63.4837 253.498 69.4122 250.69 75.2519C243.166 90.8941 234.42 106.506 222.681 119.405C216.827 125.839 209.981 131.974 201.725 135.083C196.418 137.084 198.802 145.634 204.167 143.618C221.236 137.191 233.473 121.87 243.143 107.06C252.05 93.4128 259.341 78.6805 265.552 63.6336C266.982 60.1668 268.41 56.6767 269.666 53.1425C271.343 48.4105 263.808 45.451 261.511 49.8333C252.066 67.8775 244.551 88.2559 245.463 108.944C245.77 115.947 246.835 124.107 250.512 130.293L252.069 124.21C235.54 133.302 226.485 153.851 224.298 171.967C224.005 174.365 224.961 176.687 227.497 177.366C229.584 177.924 232.609 176.545 232.897 174.168L232.893 174.182Z" fill="#231F20"/>
<path d="M252.606 84.1178C249.307 82.8686 247.648 79.1764 248.898 75.8771L259.177 48.7851C260.426 45.4859 264.119 43.8276 267.418 45.0769C270.718 46.3261 272.376 50.0185 271.127 53.3177L260.847 80.4096C259.598 83.7088 255.906 85.3671 252.606 84.1178Z" fill="#231F20"/>
</svg>
