<svg width="256" height="380" viewBox="0 0 256 380" fill="none" xmlns="http://www.w3.org/2000/svg">
<path d="M181.774 380.662C185.813 354.979 179.309 329.466 165.32 307.207C135.284 259.439 119.869 210.563 128.914 167.49C132.291 151.424 117.587 134.301 95.6335 127.557C107.288 111.505 112.57 92.2373 103.485 73.5165C99.3081 64.9047 92.5163 56.965 84.5526 51.5808C79.1627 47.9432 74.3489 56.812 79.6854 60.4196C79.8271 60.5139 79.9093 60.568 79.9688 60.6081C80.0759 60.7028 80.2281 60.8257 80.4298 60.9948C81.8308 62.1504 83.2097 63.3266 84.516 64.5892C88.3919 68.3408 91.3813 72.1486 93.9636 76.9744C102.297 92.5424 97.0426 109.413 86.7718 122.676C86.112 123.521 85.7748 124.426 85.6743 125.318C63.7245 122.145 43.8317 130.742 39.6958 146.186C28.3119 188.7 -7.5242 225.343 -55.8889 254.397C-78.4311 267.937 -95.7569 287.761 -103.746 312.502C-124.564 376.905 -74.3472 448.912 9.80294 468.998C93.9531 489.084 171.278 447.521 181.793 380.658L181.774 380.662Z" fill="#AFBC6B"/>
<path d="M154.775 282.986C133.976 249.749 116.694 211.629 116.539 171.719C116.503 162.998 117.795 154.724 119.15 146.153C120.275 139.014 118.789 132.056 115.325 125.749C107.511 111.515 91.3458 102.721 75.9011 99.5271C60.2499 96.2926 42.0165 97.9737 29.4282 108.669C23.5393 113.677 21.0903 119.808 18.9138 127.007C16.3889 135.376 12.8382 143.371 8.58013 150.998C-0.632349 167.504 -13.1584 181.921 -27.0833 194.631C-34.7536 201.634 -42.8825 208.095 -51.3383 214.116C-59.9841 220.28 -69.1388 225.572 -77.9859 231.421C-106.827 250.493 -126.473 281.121 -128.237 315.999C-129.726 345.412 -117.854 373.857 -99.4215 396.33C-56.8113 448.275 20.5461 469.696 84.4782 450.927C113.006 442.549 139.278 425.586 155.962 400.665C174.256 373.345 177.764 338.441 166.739 307.606C163.661 298.989 159.574 290.761 154.754 282.998C151.327 277.478 142.728 282.756 146.154 288.284C163.376 316.009 168.851 350.507 155.329 380.937C144.297 405.755 122.921 424.509 98.2489 435.241C40.2344 460.47 -33.775 445.882 -79.5776 402.821C-99.4724 384.122 -114.581 359.131 -117.664 331.635C-121.144 300.587 -108.701 270.548 -85.4979 249.819C-78.7087 243.755 -71.128 239.048 -63.4258 234.265C-54.9701 229.006 -46.7242 223.393 -38.7947 217.369C-23.8134 205.991 -9.77285 193.232 2.01189 178.516C12.4824 165.431 21.0792 151.034 26.7673 135.243C29.1222 128.709 29.9941 121.942 35.245 116.963C40.2719 112.199 47.3174 109.697 54.0667 108.689C69.5079 106.394 86.8903 110.958 98.698 121.314C103.68 125.683 108.066 131.389 109.23 138.063C109.698 140.776 109.406 143.3 108.89 145.969C108.023 150.472 107.392 154.998 106.976 159.566C103.726 195.197 115.279 230.704 131.251 262.107C135.803 271.067 140.822 279.768 146.152 288.292C149.6 293.8 158.198 288.523 154.752 283.007L154.775 282.986Z" fill="#231F20"/>
<path d="M64.8325 38.8526C65.9931 39.6396 63.8507 38.0046 65.5769 39.4279C66.9779 40.5834 68.3568 41.7597 69.6631 43.0223C73.539 46.7738 76.5284 50.5817 79.1107 55.4075C87.4441 70.9755 82.1897 87.8468 71.9189 101.109C67.9722 106.2 75.2355 113.215 79.2082 108.087C91.9431 91.6356 98.1088 71.49 88.6318 51.9496C84.4552 43.3377 77.6633 35.3983 69.6996 30.0141C64.3098 26.3765 59.496 35.2451 64.8325 38.8526Z" fill="#231F20"/>
<path d="M71.8914 125.037C78.6616 126.653 85.2276 123.449 86.5568 117.88C87.886 112.312 83.4751 106.487 76.7049 104.871C69.9346 103.255 63.3687 106.459 62.0395 112.028C60.7103 117.597 65.1211 123.421 71.8914 125.037Z" fill="#231F20"/>
</svg>
