<svg width="203" height="591" viewBox="0 0 203 591" fill="none" xmlns="http://www.w3.org/2000/svg">
<g clip-path="url(#clip0_583_3568)">
<path d="M5.85971 276.473C24.7599 200.088 83.7247 149.031 137.544 162.424C138.294 162.606 139.045 162.812 139.796 163.019C150.947 134.448 162.086 105.89 173.237 77.3203V41.5621C173.237 36.4988 177.33 32.407 182.367 32.407H190.031C195.08 32.407 199.16 36.511 199.16 41.5621V73.3984C205.238 90.8343 210.287 108.695 214.682 126.568C223.618 162.861 228.933 199.663 227.153 237.073C226.1 259.378 229.284 282.544 237.978 303.174C238.692 304.886 238.97 306.683 238.692 308.346C284.713 317.744 324.088 370.477 331.51 437.877C340.119 516.108 302.415 584.468 247.3 590.563C192.186 596.658 140.522 538.194 131.914 459.963C130.715 449.096 130.412 438.424 130.933 428.066C111.27 439.783 89.8028 444.179 69.0864 439.018C15.2674 425.626 -13.0405 352.847 5.85971 276.461V276.473ZM203.918 309.73C207.878 308.577 211.946 307.751 216.123 307.29C218.738 306.998 221.354 306.853 223.945 306.853C216.305 287.377 212.636 266.663 212.479 245.706C212.37 231.487 213.629 217.451 212.709 203.196C210.384 167.208 202.102 131.546 191.484 97.0874C191.012 97.1603 190.527 97.2089 190.043 97.2089H182.379C181.931 97.2089 181.483 97.1603 181.047 97.0996C173.601 116.175 166.166 135.238 158.72 154.313C157.037 158.635 155.342 162.958 153.659 167.28C153.514 167.645 153.344 167.985 153.175 168.3C193.409 189.002 214.476 246.823 203.931 309.718L203.918 309.73Z" fill="#72364E"/>
<path d="M32.5821 246.009C21.3825 292.258 24.6637 353.211 64.0018 386.031C78.9185 398.476 98.9327 403.965 118.063 400.48C139.578 396.558 158.236 383.857 173.008 368.097C208.968 329.728 225.604 270.815 217.08 219.078C210.142 176.945 182.246 131.789 134.203 135.383C110.362 137.168 89.0043 151.532 73.0463 168.555C52.8384 190.107 39.7742 217.512 32.5821 246.009C30.2938 255.091 16.273 251.242 18.5735 242.136C31.2866 191.783 65.2731 136.828 118.729 123.302C141.201 117.62 165.392 121.274 184.631 134.448C205.505 148.74 219.042 171.227 226.391 195.122C243.802 251.679 229.709 318.801 194.112 365.487C165.332 403.224 115.532 430.956 69.2687 406.927C44.5446 394.093 28.4776 369.105 20.1475 343.133C9.7106 310.592 10.5824 275.089 18.5614 242.136C20.765 233.029 34.7858 236.891 32.5701 246.009H32.5821Z" fill="#231F20"/>
<path d="M213.484 290.643C214.707 285.58 215.76 280.505 216.644 275.381C217.068 272.952 219.465 270.912 221.717 270.293C270.802 256.755 314.317 291.53 336.571 332.825C362.785 381.478 368.051 444.616 347.032 496.134C329.888 538.134 291.93 573.321 243.826 564.373C195.722 555.424 162.958 505.69 150.596 460.777C145.983 444.009 143.513 426.524 143.186 409.137C143.101 404.778 142.702 399.982 143.392 395.659C144.167 390.754 147.158 389.382 151.008 386.856C156.662 383.153 161.905 378.916 166.833 374.277C190.503 351.96 205.565 321.945 213.484 290.631C215.784 281.549 229.793 285.398 227.493 294.504C216.717 337.147 192.634 378.758 154.325 401.949L157.921 395.659C156.02 438.946 167.535 485.535 196.509 518.719C218.206 543.573 251.296 559.661 283.781 546.463C316.267 533.265 335.167 496.074 341.875 462.586C350.265 420.696 343.436 374.362 322.357 337.135C303.009 302.979 266.976 272.892 225.579 284.317L230.653 279.23C229.769 284.354 228.715 289.429 227.493 294.492C225.289 303.599 211.28 299.75 213.484 290.619V290.643Z" fill="#231F20"/>
<path d="M159.362 131.012C171.167 100.754 182.984 70.4965 194.789 40.2265C196.472 35.9039 198.167 31.5813 199.85 27.2588C202.526 20.3864 211.183 20.3621 213.859 27.2588C222.286 48.9687 228.848 71.565 234.418 94.1612C243.353 130.454 248.668 167.256 246.889 204.666C245.835 226.97 249.02 250.137 257.713 270.767C259.251 274.421 258.778 278.525 255.11 280.735C252.083 282.557 246.695 281.743 245.169 278.125C236.512 257.593 232.384 235.579 232.202 213.311C232.093 199.092 233.352 185.056 232.432 170.802C229.901 131.777 220.397 93.1292 208.471 55.9868C205.795 47.6452 203.022 39.3158 199.85 31.1442H213.859C202.054 61.4021 190.236 91.66 178.431 121.93C176.748 126.253 175.053 130.575 173.37 134.898C170.004 143.531 155.947 139.779 159.362 131.024V131.012Z" fill="#231F20"/>
<path d="M202.078 0H209.755C214.796 0 218.884 4.09887 218.884 9.15507V55.659C218.884 60.7152 214.796 64.814 209.755 64.814H202.078C197.036 64.814 192.949 60.7152 192.949 55.659V9.15507C192.949 4.09887 197.036 0 202.078 0Z" fill="#231F20"/>
</g>
<defs>
<clipPath id="clip0_583_3568">
<rect width="360" height="591" fill="white" transform="matrix(-1 0 0 1 360 0)"/>
</clipPath>
</defs>
</svg>
