<svg width="50" height="50" viewBox="0 0 50 50" fill="none" xmlns="http://www.w3.org/2000/svg">
<mask id="mask0_740_554" style="mask-type:alpha" maskUnits="userSpaceOnUse" x="0" y="0" width="50" height="50">
<rect width="50" height="50" fill="#D9D9D9"/>
</mask>
<g mask="url(#mask0_740_554)">
<path d="M12.2067 46.0771C11.0541 46.0771 10.0675 45.6667 9.24674 44.846C8.426 44.0252 8.01562 43.0386 8.01562 41.8861V16.7398C8.01562 15.5873 8.426 14.6006 9.24674 13.7799C10.0675 12.9591 11.0541 12.5488 12.2067 12.5488H16.3977C16.3977 10.2437 17.2185 8.27042 18.8599 6.62892C20.5014 4.98743 22.4747 4.16669 24.7798 4.16669C27.0849 4.16669 29.0581 4.98743 30.6996 6.62892C32.3411 8.27042 33.1619 10.2437 33.1619 12.5488H37.3529C38.5055 12.5488 39.4921 12.9591 40.3128 13.7799C41.1336 14.6006 41.544 15.5873 41.544 16.7398V41.8861C41.544 43.0386 41.1336 44.0252 40.3128 44.846C39.4921 45.6667 38.5055 46.0771 37.3529 46.0771H12.2067ZM12.2067 41.8861H37.3529V16.7398H33.1619V20.9309C33.1619 21.5246 32.9611 22.0223 32.5594 22.4239C32.1578 22.8256 31.6601 23.0264 31.0664 23.0264C30.4726 23.0264 29.9749 22.8256 29.5733 22.4239C29.1717 22.0223 28.9708 21.5246 28.9708 20.9309V16.7398H20.5888V20.9309C20.5888 21.5246 20.3879 22.0223 19.9863 22.4239C19.5846 22.8256 19.087 23.0264 18.4932 23.0264C17.8995 23.0264 17.4018 22.8256 17.0002 22.4239C16.5985 22.0223 16.3977 21.5246 16.3977 20.9309V16.7398H12.2067V41.8861ZM20.5888 12.5488H28.9708C28.9708 11.3962 28.5605 10.4096 27.7397 9.58885C26.919 8.7681 25.9323 8.35773 24.7798 8.35773C23.6273 8.35773 22.6406 8.7681 21.8199 9.58885C20.9991 10.4096 20.5888 11.3962 20.5888 12.5488Z" fill="#1C1B1F"/>
</g>
</svg>
