<svg width="383" height="486" viewBox="0 0 383 486" fill="none" xmlns="http://www.w3.org/2000/svg">
<path d="M257.395 40.2441L46.4833 234.796L215.261 417.781L235.523 439.743C305.455 408.748 358.745 330.058 366.207 234.262C373.216 144.284 337.95 62.9502 280.37 19.0564L257.404 40.2448L257.395 40.2441Z" fill="#EF9E81"/>
<path d="M14.7275 269.479L203.768 474.427C273.699 443.432 326.99 364.741 334.451 268.945C341.46 178.967 306.194 97.6336 248.614 53.7398L14.7363 269.48L14.7275 269.479Z" stroke="#231F20" stroke-opacity="0.2" stroke-width="5" stroke-miterlimit="10"/>
<path d="M14.7275 269.479L203.768 474.427C273.699 443.432 326.99 364.741 334.451 268.945C341.46 178.967 306.194 97.6336 248.614 53.7398L14.7363 269.48L14.7275 269.479Z" stroke="#231F20" stroke-opacity="0.2" stroke-width="5" stroke-miterlimit="10"/>
<path d="M14.7275 269.479L203.768 474.427C273.699 443.432 326.99 364.741 334.451 268.945C341.46 178.967 306.194 97.6336 248.614 53.7398L14.7363 269.48L14.7275 269.479Z" stroke="#231F20" stroke-opacity="0.2" stroke-width="5" stroke-miterlimit="10"/>
<path d="M14.7275 269.479L203.768 474.427C273.699 443.432 326.99 364.741 334.451 268.945C341.46 178.967 306.194 97.6336 248.614 53.7398L14.7363 269.48L14.7275 269.479Z" stroke="#231F20" stroke-opacity="0.2" stroke-width="5" stroke-miterlimit="10"/>
<path d="M225.64 74.928C271.606 118.095 298.708 188.614 292.688 265.897C286.165 349.651 242.442 419.53 183.506 452.465L203.768 474.427C273.7 443.432 326.99 364.742 334.452 268.946C341.46 178.968 306.194 97.6339 248.615 53.7401L225.649 74.9287L225.64 74.928Z" stroke="#231F20" stroke-opacity="0.2" stroke-width="5" stroke-miterlimit="10"/>
<path d="M114.488 270.366C118.877 266.586 132.639 279.977 128.921 283.702C126.541 286.084 120.051 280.471 118.597 278.954C116.889 277.169 112.909 272.507 114.953 269.86C116.998 267.213 112.673 264.131 110.589 266.829C103.14 276.489 124.575 296.393 132.942 287.266C137.435 282.367 132.432 274.659 128.739 270.987C124.634 266.901 116.538 261.599 111.046 266.323C108.447 268.554 111.898 272.597 114.497 270.357L114.488 270.366Z" fill="#231F20" fill-opacity="0.3"/>
<path d="M110.234 275.214C109.5 273.146 109.316 271.138 109.845 269.356C109.988 269.717 110.194 270.05 110.443 270.341C110.94 270.924 111.637 271.36 112.421 271.48C112.904 271.553 113.406 271.504 113.896 271.309C113.872 271.607 113.883 271.91 113.924 272.213C114.048 273.136 114.439 274.086 114.93 274.973C115.915 276.749 117.373 278.398 118.236 279.301C118.987 280.084 121.006 281.894 123.149 283.215C124.219 283.874 125.354 284.434 126.4 284.667C127.443 284.899 128.506 284.825 129.274 284.056C129.859 283.47 130.081 282.705 130.048 281.885C130.015 281.076 129.736 280.191 129.301 279.297C128.431 277.506 126.878 275.554 125.089 273.857C123.299 272.16 121.233 270.683 119.312 269.87C118.123 269.368 116.913 269.092 115.849 269.243C116.015 268.747 116.028 268.246 115.913 267.772C115.729 267.016 115.232 266.37 114.607 265.931C114.285 265.704 113.917 265.528 113.528 265.417C115.609 264.641 117.931 264.929 120.233 265.818C123.174 266.955 125.989 269.046 127.995 270.961L128.386 271.341C130.199 273.144 132.325 275.932 133.443 278.845C134.527 281.669 134.63 284.497 132.76 286.716L132.573 286.928L132.389 287.122C130.471 289.064 127.848 289.479 124.988 288.796C122.024 288.088 118.867 286.207 116.174 283.725C113.481 281.244 111.293 278.201 110.234 275.214ZM110.623 268.21C110.624 267.896 110.703 267.572 110.891 267.26C110.922 267.218 110.952 267.176 110.984 267.134C111.822 266.051 113.105 266.096 114.032 266.749C114.494 267.073 114.824 267.527 114.941 268.009C115.054 268.474 114.98 269.008 114.558 269.554C114.491 269.641 114.43 269.731 114.374 269.821C114.305 269.87 114.236 269.922 114.171 269.978C113.628 270.446 113.071 270.568 112.571 270.491C112.058 270.413 111.567 270.119 111.202 269.692C110.837 269.265 110.622 268.732 110.623 268.21Z" stroke="#231F20" stroke-opacity="0.2"/>
<path d="M131.37 349.199C137.182 349.048 139.891 366.037 135.058 368.325C130.761 370.362 125.799 350.826 132.084 349.157C135.367 348.285 134.389 343.057 131.07 343.935C119.289 347.068 122.814 375.125 135.179 373.956C147.554 372.789 143.887 343.575 131.783 343.902C128.401 343.994 127.953 349.288 131.37 349.199Z" fill="#231F20" fill-opacity="0.3"/>
<path d="M124.565 360.494C124.096 356.925 124.374 353.246 125.472 350.286C126.205 348.312 127.292 346.684 128.748 345.603C128.63 345.922 128.555 346.252 128.529 346.578C128.467 347.339 128.645 348.129 129.126 348.733C129.438 349.126 129.862 349.419 130.384 349.575C129.534 350.409 129.04 351.667 128.8 353.057C128.434 355.174 128.61 357.776 129.113 360.231C129.616 362.686 130.46 365.05 131.471 366.686C131.975 367.501 132.545 368.176 133.17 368.576C133.814 368.989 134.545 369.122 135.273 368.777C136.712 368.095 137.489 366.385 137.83 364.436C138.178 362.453 138.105 360.059 137.698 357.76C137.291 355.463 136.542 353.216 135.503 351.539C134.878 350.531 134.117 349.685 133.23 349.185C134.394 348.404 134.772 346.994 134.543 345.796C134.475 345.438 134.35 345.088 134.172 344.768C135.946 345.382 137.485 346.731 138.747 348.578C140.544 351.207 141.73 354.783 142.165 358.427C142.599 362.074 142.274 365.733 141.109 368.529C139.95 371.313 137.988 373.189 135.132 373.459C132.263 373.73 129.878 372.319 128.064 369.899C126.244 367.471 125.035 364.064 124.565 360.494ZM129.526 346.659C129.618 345.523 130.422 344.44 131.797 344.402C131.962 344.398 132.125 344.4 132.287 344.407C132.477 344.463 132.645 344.549 132.791 344.658C133.18 344.95 133.456 345.429 133.562 345.984C133.775 347.1 133.282 348.321 131.956 348.674L131.798 348.72C131.654 348.705 131.507 348.696 131.357 348.699C130.645 348.718 130.188 348.462 129.909 348.111C129.618 347.745 129.48 347.223 129.526 346.659Z" stroke="#231F20" stroke-opacity="0.2"/>
<path d="M108.779 322.793C111.795 325.453 102.742 337.812 99.9776 335.67C96.9625 333.33 105.402 320.993 108.779 322.793C111.763 324.384 114.82 320.03 111.81 318.428C106.531 315.619 101.195 320.035 98.1441 324.203C95.3009 328.093 91.7044 336.411 96.9465 340.035C101.64 343.287 107.5 338.299 110.245 334.755C113.651 330.358 116.754 322.792 111.801 318.427C109.233 316.167 106.235 320.561 108.77 322.792L108.779 322.793Z" fill="#231F20" fill-opacity="0.3"/>
<path d="M97.2308 339.623C94.849 337.977 94.4213 335.248 95.0034 332.316C95.585 329.387 97.1571 326.401 98.5481 324.497L98.5471 324.497C100.047 322.449 102.092 320.365 104.378 319.139C105.693 318.434 107.074 318.019 108.479 318.046C108.285 318.224 108.11 318.424 107.96 318.641C107.303 319.596 107.052 320.963 107.642 322.145C107.481 322.169 107.319 322.206 107.159 322.256C106.533 322.45 105.885 322.831 105.25 323.321C103.976 324.303 102.665 325.793 101.568 327.397C100.472 329 99.5647 330.754 99.1252 332.279C98.906 333.04 98.7949 333.774 98.8539 334.416C98.9135 335.065 99.1522 335.662 99.6708 336.065L99.6717 336.065C100.182 336.46 100.805 336.487 101.405 336.323C101.998 336.162 102.624 335.802 103.244 335.334C104.489 334.394 105.819 332.924 106.954 331.321C108.088 329.718 109.053 327.943 109.542 326.377C109.786 325.596 109.92 324.839 109.879 324.167C109.868 323.981 109.84 323.799 109.799 323.623C111.108 323.753 112.292 323.04 112.952 322.094C113.105 321.874 113.234 321.636 113.332 321.387C113.97 322.943 114.016 324.693 113.667 326.483C113.104 329.372 111.521 332.292 109.849 334.449C108.504 336.186 106.404 338.262 104.09 339.502C101.851 340.702 99.5113 341.075 97.432 339.757L97.2308 339.623ZM109.05 322.369C108.072 321.462 108.147 320.134 108.784 319.209C109.105 318.743 109.54 318.427 109.992 318.33C110.056 318.317 110.123 318.31 110.19 318.305C110.628 318.431 111.067 318.606 111.506 318.834C111.885 319.172 112.212 319.532 112.493 319.908C112.51 319.966 112.522 320.025 112.531 320.083C112.598 320.539 112.457 321.058 112.133 321.522C111.485 322.45 110.253 322.988 109.05 322.369Z" stroke="#231F20" stroke-opacity="0.2"/>
<path d="M108.671 228.415C105.835 232.449 92.865 223.818 95.0094 221.373C97.4848 218.555 109.88 225.099 108.357 229.03C107.114 232.22 112.116 234.021 113.358 230.841C117.246 220.841 94.9967 209.337 89.9971 219.02C84.9975 228.703 106.913 240.153 113.035 231.455C115.012 228.651 110.638 225.628 108.671 228.424L108.671 228.415Z" fill="#231F20" fill-opacity="0.3"/>
<path d="M91.0502 226.005C89.669 223.811 89.2944 221.471 90.4411 219.25C91.5863 217.032 93.7212 215.996 96.3264 215.875C98.9443 215.753 101.986 216.564 104.783 217.994C107.579 219.424 110.08 221.448 111.64 223.698C112.616 225.106 113.21 226.581 113.299 228.05C113.099 227.814 112.869 227.604 112.617 227.429C111.987 226.993 111.201 226.747 110.411 226.826C110.016 226.866 109.628 226.987 109.268 227.197L109.311 226.636L108.811 227.347C108.585 226.688 108.158 226.041 107.638 225.449C106.601 224.269 105.065 223.138 103.424 222.233C101.783 221.327 99.9975 220.627 98.4453 220.336C97.67 220.191 96.9299 220.143 96.2844 220.237C95.7198 220.319 95.1957 220.514 94.7966 220.877L94.6338 221.044L94.559 221.136C94.2078 221.605 94.2128 222.174 94.39 222.702C94.5754 223.255 94.9666 223.835 95.4653 224.402C96.4691 225.544 98.0241 226.757 99.7188 227.755C101.413 228.751 103.291 229.559 104.952 229.853C105.914 230.023 106.869 230.028 107.673 229.746C107.618 230.333 107.742 230.877 108.002 231.347C108.383 232.037 109.036 232.534 109.756 232.794C110.031 232.894 110.321 232.96 110.617 232.99C109.361 233.71 107.832 234.044 106.15 234.044C103.412 234.042 100.335 233.152 97.5797 231.688C94.8238 230.224 92.4383 228.21 91.0502 226.005ZM108.877 230.864C108.638 230.432 108.564 229.877 108.823 229.212L108.824 229.211C108.856 229.129 108.881 229.045 108.904 228.962L109.08 228.712C109.49 228.129 110.003 227.872 110.511 227.821C111.033 227.769 111.585 227.93 112.048 228.251C112.51 228.571 112.851 229.029 112.979 229.53C113.052 229.814 113.057 230.124 112.97 230.449C112.945 230.519 112.92 230.589 112.892 230.659L112.892 230.658C112.633 231.321 112.194 231.7 111.706 231.879C111.206 232.062 110.624 232.045 110.095 231.854C109.565 231.663 109.123 231.309 108.877 230.864Z" stroke="#231F20" stroke-opacity="0.2"/>
</svg>
